<?xml version="1.0" encoding="iso-8859-1"?>
<!-- Uploaded to: SVG Repo, www.svgrepo.com, Generator: SVG Repo Mixer Tools -->
<!DOCTYPE svg PUBLIC "-//W3C//DTD SVG 1.1//EN" "http://www.w3.org/Graphics/SVG/1.1/DTD/svg11.dtd">
<svg fill="#000000" version="1.1" id="Capa_1" xmlns="http://www.w3.org/2000/svg" xmlns:xlink="http://www.w3.org/1999/xlink" 
	 width="800px" height="800px" viewBox="0 0 45.736 45.736"
	 xml:space="preserve">
<g>
	<path d="M35.821,0H18.835v7.429c0,0.201-0.115,0.384-0.297,0.471c-0.071,0.033-0.148,0.051-0.225,0.051
		c-0.117,0-0.232-0.04-0.327-0.116l-3.188-2.576L11.61,7.835c-0.156,0.127-0.372,0.152-0.552,0.065
		c-0.181-0.087-0.297-0.271-0.297-0.471V0H9.917C7.041,0,4.71,2.332,4.71,5.207v35.322c0,2.875,2.331,5.207,5.207,5.207h25.902
		c2.876,0,5.207-2.332,5.207-5.207V5.207C41.028,2.332,38.697,0,35.821,0z M36.683,41.367c-0.609,0.609-1.41,0.915-2.209,0.915
		s-1.602-0.306-2.209-0.915l-3.693-3.691c-1.906,1.127-4.078,1.74-6.351,1.74c-3.341,0-6.483-1.301-8.846-3.663
		c-2.363-2.362-3.665-5.505-3.665-8.847s1.302-6.483,3.665-8.846c2.362-2.363,5.505-3.665,8.847-3.665
		c3.34,0,6.482,1.302,8.846,3.665c4.113,4.114,4.742,10.396,1.918,15.192l3.697,3.696C37.903,38.169,37.903,40.146,36.683,41.367z
		 M26.649,31.333c-1.184,1.185-2.756,1.834-4.429,1.834c-1.673,0-3.245-0.649-4.428-1.833c-1.183-1.183-1.834-2.755-1.834-4.428
		s0.651-3.245,1.835-4.428c1.182-1.184,2.755-1.834,4.428-1.834c1.672,0,3.245,0.651,4.428,1.834
		C29.091,24.92,29.091,28.891,26.649,31.333z"/>
</g>
</svg>