<?xml version="1.0" encoding="iso-8859-1"?>
<!-- Uploaded to: SVG Repo, www.svgrepo.com, Generator: SVG Repo Mixer Tools -->
<svg fill="#000000" height="800px" width="800px" version="1.1" id="Layer_1" xmlns="http://www.w3.org/2000/svg" xmlns:xlink="http://www.w3.org/1999/xlink" 
	 viewBox="0 0 512 512" xml:space="preserve">
<g>
	<g>
		<path d="M448,0H106.667c-35.355,0-64,28.645-64,64v341.333C42.667,464.241,90.426,512,149.333,512H448
			c11.782,0,21.333-9.551,21.333-21.333v-384V21.333C469.333,9.551,459.782,0,448,0z M106.667,42.667h320v42.667H320h-85.333
			h-85.333h-42.667c-11.782,0-21.333-9.554-21.333-21.333C85.333,52.209,94.875,42.667,106.667,42.667z M256,128h42.667v55.163
			l-6.248-6.248c-8.331-8.331-21.839-8.331-30.17,0L256,183.163V128z M85.333,405.333V124.358c0.485,0.172,0.979,0.325,1.47,0.485
			c0.326,0.106,0.647,0.221,0.975,0.322c0.908,0.28,1.825,0.54,2.75,0.781c0.297,0.077,0.6,0.142,0.899,0.215
			c0.66,0.161,1.322,0.318,1.99,0.459c0.374,0.079,0.752,0.147,1.128,0.22c0.606,0.116,1.214,0.227,1.826,0.326
			c0.393,0.063,0.787,0.122,1.182,0.178c0.616,0.088,1.235,0.166,1.857,0.236c0.384,0.043,0.768,0.087,1.154,0.124
			c0.678,0.064,1.361,0.113,2.045,0.155c0.331,0.021,0.66,0.048,0.992,0.064c1.017,0.048,2.038,0.078,3.066,0.078H128v337.691
			C103.144,456.904,85.333,433.197,85.333,405.333z M426.667,469.333h-256V128h42.667v106.667c0,19.006,22.979,28.524,36.418,15.085
			l27.582-27.582l27.582,27.582c13.439,13.439,36.418,3.921,36.418-15.085V128h85.333V469.333z"/>
	</g>
</g>
</svg>